<mxfile host="Electron" modified="2024-01-06T17:50:50.965Z" agent="Mozilla/5.0 (Windows NT 10.0; Win64; x64) AppleWebKit/537.36 (KHTML, like Gecko) draw.io/21.6.8 Chrome/114.0.5735.289 Electron/25.5.0 Safari/537.36" etag="SafXNd4ojsxFg2fc9oGB" version="21.6.8" type="device">
  <diagram name="General" id="jYW3RAiraD2QpNLLpeQp">
    <mxGraphModel dx="1235" dy="731" grid="1" gridSize="10" guides="1" tooltips="1" connect="1" arrows="1" fold="1" page="1" pageScale="1" pageWidth="1600" pageHeight="900" math="0" shadow="0">
      <root>
        <mxCell id="0" />
        <mxCell id="1" parent="0" />
        <mxCell id="2dlY26bJGnjmjwcyT_eN-1" value="Web apps" style="text;html=1;align=center;verticalAlign=middle;resizable=0;points=[];autosize=1;strokeColor=none;fillColor=none;fontSize=26;" vertex="1" parent="1">
          <mxGeometry x="210.5" y="200" width="140" height="40" as="geometry" />
        </mxCell>
        <mxCell id="2dlY26bJGnjmjwcyT_eN-12" style="edgeStyle=orthogonalEdgeStyle;rounded=0;orthogonalLoop=1;jettySize=auto;html=1;" edge="1" parent="1" source="2dlY26bJGnjmjwcyT_eN-2" target="2dlY26bJGnjmjwcyT_eN-10">
          <mxGeometry relative="1" as="geometry" />
        </mxCell>
        <mxCell id="2dlY26bJGnjmjwcyT_eN-2" value="" style="shape=actor;whiteSpace=wrap;html=1;" vertex="1" parent="1">
          <mxGeometry x="80" y="300" width="40" height="50" as="geometry" />
        </mxCell>
        <mxCell id="2dlY26bJGnjmjwcyT_eN-4" value="Buyer" style="text;html=1;align=center;verticalAlign=middle;resizable=0;points=[];autosize=1;strokeColor=none;fillColor=none;fontSize=14;" vertex="1" parent="1">
          <mxGeometry x="70" y="352" width="60" height="30" as="geometry" />
        </mxCell>
        <mxCell id="2dlY26bJGnjmjwcyT_eN-14" style="edgeStyle=orthogonalEdgeStyle;rounded=0;orthogonalLoop=1;jettySize=auto;html=1;entryX=0;entryY=0.5;entryDx=0;entryDy=0;" edge="1" parent="1" source="2dlY26bJGnjmjwcyT_eN-6" target="2dlY26bJGnjmjwcyT_eN-13">
          <mxGeometry relative="1" as="geometry" />
        </mxCell>
        <mxCell id="2dlY26bJGnjmjwcyT_eN-6" value="" style="shape=actor;whiteSpace=wrap;html=1;" vertex="1" parent="1">
          <mxGeometry x="80" y="400" width="40" height="50" as="geometry" />
        </mxCell>
        <mxCell id="2dlY26bJGnjmjwcyT_eN-7" value="Seller" style="text;html=1;align=center;verticalAlign=middle;resizable=0;points=[];autosize=1;strokeColor=none;fillColor=none;fontSize=14;" vertex="1" parent="1">
          <mxGeometry x="70" y="452" width="60" height="30" as="geometry" />
        </mxCell>
        <mxCell id="2dlY26bJGnjmjwcyT_eN-16" style="edgeStyle=orthogonalEdgeStyle;rounded=0;orthogonalLoop=1;jettySize=auto;html=1;" edge="1" parent="1" source="2dlY26bJGnjmjwcyT_eN-8" target="2dlY26bJGnjmjwcyT_eN-15">
          <mxGeometry relative="1" as="geometry" />
        </mxCell>
        <mxCell id="2dlY26bJGnjmjwcyT_eN-8" value="" style="shape=actor;whiteSpace=wrap;html=1;" vertex="1" parent="1">
          <mxGeometry x="80" y="500" width="40" height="50" as="geometry" />
        </mxCell>
        <mxCell id="2dlY26bJGnjmjwcyT_eN-9" value="Admin" style="text;html=1;align=center;verticalAlign=middle;resizable=0;points=[];autosize=1;strokeColor=none;fillColor=none;fontSize=14;" vertex="1" parent="1">
          <mxGeometry x="70" y="552" width="60" height="30" as="geometry" />
        </mxCell>
        <mxCell id="2dlY26bJGnjmjwcyT_eN-10" value="Buyer web app" style="whiteSpace=wrap;html=1;fillColor=#cce5ff;strokeColor=#36393d;fontColor=#171717;" vertex="1" parent="1">
          <mxGeometry x="201" y="305.5" width="159" height="39" as="geometry" />
        </mxCell>
        <mxCell id="2dlY26bJGnjmjwcyT_eN-13" value="Seller web app" style="shape=parallelogram;perimeter=parallelogramPerimeter;whiteSpace=wrap;html=1;fixedSize=1;fillColor=#cce5ff;strokeColor=#36393d;fontColor=#121212;" vertex="1" parent="1">
          <mxGeometry x="201" y="405" width="159" height="40" as="geometry" />
        </mxCell>
        <mxCell id="2dlY26bJGnjmjwcyT_eN-15" value="Admin web app" style="shape=trapezoid;perimeter=trapezoidPerimeter;whiteSpace=wrap;html=1;fixedSize=1;fillColor=#cce5ff;strokeColor=#36393d;fontColor=#121212;" vertex="1" parent="1">
          <mxGeometry x="201" y="505" width="159" height="40" as="geometry" />
        </mxCell>
        <mxCell id="2dlY26bJGnjmjwcyT_eN-44" style="edgeStyle=orthogonalEdgeStyle;rounded=0;orthogonalLoop=1;jettySize=auto;html=1;entryX=0;entryY=0.5;entryDx=0;entryDy=0;" edge="1" parent="1" source="2dlY26bJGnjmjwcyT_eN-18" target="2dlY26bJGnjmjwcyT_eN-43">
          <mxGeometry relative="1" as="geometry" />
        </mxCell>
        <mxCell id="2dlY26bJGnjmjwcyT_eN-18" value="" style="rounded=0;whiteSpace=wrap;html=1;fillColor=none;" vertex="1" parent="1">
          <mxGeometry x="160.5" y="262" width="240" height="320" as="geometry" />
        </mxCell>
        <mxCell id="2dlY26bJGnjmjwcyT_eN-19" value="Backend services" style="text;html=1;align=center;verticalAlign=middle;resizable=0;points=[];autosize=1;strokeColor=none;fillColor=none;fontSize=26;" vertex="1" parent="1">
          <mxGeometry x="524.5" y="100" width="230" height="40" as="geometry" />
        </mxCell>
        <mxCell id="2dlY26bJGnjmjwcyT_eN-20" value="Authorization REST API" style="rounded=1;whiteSpace=wrap;html=1;fillColor=#cdeb8b;strokeColor=#36393d;fontColor=#191919;" vertex="1" parent="1">
          <mxGeometry x="560" y="200" width="160" height="40" as="geometry" />
        </mxCell>
        <mxCell id="2dlY26bJGnjmjwcyT_eN-22" value="Seller backend" style="shape=parallelogram;perimeter=parallelogramPerimeter;whiteSpace=wrap;html=1;fixedSize=1;fillColor=#cdeb8b;strokeColor=#36393d;fontColor=#0A0A0A;" vertex="1" parent="1">
          <mxGeometry x="560" y="360" width="159" height="40" as="geometry" />
        </mxCell>
        <mxCell id="2dlY26bJGnjmjwcyT_eN-23" value="Admin backend" style="shape=trapezoid;perimeter=trapezoidPerimeter;whiteSpace=wrap;html=1;fixedSize=1;fillColor=#cdeb8b;strokeColor=#36393d;fontColor=#0A0A0A;" vertex="1" parent="1">
          <mxGeometry x="560" y="442" width="159" height="40" as="geometry" />
        </mxCell>
        <mxCell id="2dlY26bJGnjmjwcyT_eN-25" value="Buyer web app" style="whiteSpace=wrap;html=1;fillColor=#cdeb8b;strokeColor=#36393d;fontColor=#0A0A0A;" vertex="1" parent="1">
          <mxGeometry x="560" y="282" width="159" height="39" as="geometry" />
        </mxCell>
        <mxCell id="2dlY26bJGnjmjwcyT_eN-26" value="Email sender service" style="rounded=1;whiteSpace=wrap;html=1;fillColor=#cdeb8b;strokeColor=#36393d;fontColor=#191919;" vertex="1" parent="1">
          <mxGeometry x="560" y="520" width="160" height="40" as="geometry" />
        </mxCell>
        <mxCell id="2dlY26bJGnjmjwcyT_eN-27" value="Push notification service" style="rounded=1;whiteSpace=wrap;html=1;fillColor=#cdeb8b;strokeColor=#36393d;fontColor=#191919;" vertex="1" parent="1">
          <mxGeometry x="559.5" y="600" width="160" height="40" as="geometry" />
        </mxCell>
        <mxCell id="2dlY26bJGnjmjwcyT_eN-28" value="" style="endArrow=none;html=1;rounded=0;" edge="1" parent="1">
          <mxGeometry width="50" height="50" relative="1" as="geometry">
            <mxPoint x="520" y="220" as="sourcePoint" />
            <mxPoint x="559.5" y="220" as="targetPoint" />
          </mxGeometry>
        </mxCell>
        <mxCell id="2dlY26bJGnjmjwcyT_eN-29" value="" style="endArrow=none;html=1;rounded=0;" edge="1" parent="1">
          <mxGeometry width="50" height="50" relative="1" as="geometry">
            <mxPoint x="520" y="301.15999999999997" as="sourcePoint" />
            <mxPoint x="559.5" y="301.15999999999997" as="targetPoint" />
          </mxGeometry>
        </mxCell>
        <mxCell id="2dlY26bJGnjmjwcyT_eN-31" value="" style="endArrow=none;html=1;rounded=0;" edge="1" parent="1">
          <mxGeometry width="50" height="50" relative="1" as="geometry">
            <mxPoint x="520" y="380" as="sourcePoint" />
            <mxPoint x="569.5" y="379.71" as="targetPoint" />
          </mxGeometry>
        </mxCell>
        <mxCell id="2dlY26bJGnjmjwcyT_eN-32" value="" style="endArrow=none;html=1;rounded=0;entryX=0;entryY=0.5;entryDx=0;entryDy=0;" edge="1" parent="1" target="2dlY26bJGnjmjwcyT_eN-23">
          <mxGeometry width="50" height="50" relative="1" as="geometry">
            <mxPoint x="520.5" y="461.71" as="sourcePoint" />
            <mxPoint x="560" y="461.71" as="targetPoint" />
          </mxGeometry>
        </mxCell>
        <mxCell id="2dlY26bJGnjmjwcyT_eN-34" value="" style="endArrow=none;html=1;rounded=0;" edge="1" parent="1">
          <mxGeometry width="50" height="50" relative="1" as="geometry">
            <mxPoint x="720" y="219.66" as="sourcePoint" />
            <mxPoint x="761" y="220" as="targetPoint" />
          </mxGeometry>
        </mxCell>
        <mxCell id="2dlY26bJGnjmjwcyT_eN-35" value="" style="endArrow=none;html=1;rounded=0;" edge="1" parent="1">
          <mxGeometry width="50" height="50" relative="1" as="geometry">
            <mxPoint x="719" y="300" as="sourcePoint" />
            <mxPoint x="761" y="300" as="targetPoint" />
          </mxGeometry>
        </mxCell>
        <mxCell id="2dlY26bJGnjmjwcyT_eN-36" value="" style="endArrow=none;html=1;rounded=0;" edge="1" parent="1">
          <mxGeometry width="50" height="50" relative="1" as="geometry">
            <mxPoint x="710" y="379.95" as="sourcePoint" />
            <mxPoint x="761" y="380" as="targetPoint" />
          </mxGeometry>
        </mxCell>
        <mxCell id="2dlY26bJGnjmjwcyT_eN-37" value="" style="endArrow=none;html=1;rounded=0;exitX=1;exitY=0.5;exitDx=0;exitDy=0;" edge="1" parent="1" source="2dlY26bJGnjmjwcyT_eN-23">
          <mxGeometry width="50" height="50" relative="1" as="geometry">
            <mxPoint x="730" y="460" as="sourcePoint" />
            <mxPoint x="761" y="462" as="targetPoint" />
          </mxGeometry>
        </mxCell>
        <mxCell id="2dlY26bJGnjmjwcyT_eN-38" value="" style="endArrow=none;html=1;rounded=0;" edge="1" parent="1">
          <mxGeometry width="50" height="50" relative="1" as="geometry">
            <mxPoint x="761" y="219.82999999999998" as="sourcePoint" />
            <mxPoint x="761" y="540.17" as="targetPoint" />
          </mxGeometry>
        </mxCell>
        <mxCell id="2dlY26bJGnjmjwcyT_eN-39" value="" style="endArrow=classic;html=1;rounded=0;entryX=1;entryY=0.5;entryDx=0;entryDy=0;" edge="1" parent="1" target="2dlY26bJGnjmjwcyT_eN-26">
          <mxGeometry width="50" height="50" relative="1" as="geometry">
            <mxPoint x="761" y="540" as="sourcePoint" />
            <mxPoint x="825" y="540" as="targetPoint" />
          </mxGeometry>
        </mxCell>
        <mxCell id="2dlY26bJGnjmjwcyT_eN-40" value="" style="endArrow=none;html=1;rounded=0;" edge="1" parent="1">
          <mxGeometry width="50" height="50" relative="1" as="geometry">
            <mxPoint x="520" y="300" as="sourcePoint" />
            <mxPoint x="520" y="620.34" as="targetPoint" />
          </mxGeometry>
        </mxCell>
        <mxCell id="2dlY26bJGnjmjwcyT_eN-41" value="" style="endArrow=classic;html=1;rounded=0;entryX=0;entryY=0.5;entryDx=0;entryDy=0;" edge="1" parent="1" target="2dlY26bJGnjmjwcyT_eN-27">
          <mxGeometry width="50" height="50" relative="1" as="geometry">
            <mxPoint x="520" y="620" as="sourcePoint" />
            <mxPoint x="580" y="580" as="targetPoint" />
          </mxGeometry>
        </mxCell>
        <mxCell id="2dlY26bJGnjmjwcyT_eN-42" value="" style="endArrow=none;html=1;rounded=0;" edge="1" parent="1">
          <mxGeometry width="50" height="50" relative="1" as="geometry">
            <mxPoint x="520" y="219.82999999999998" as="sourcePoint" />
            <mxPoint x="520" y="540.1700000000001" as="targetPoint" />
          </mxGeometry>
        </mxCell>
        <mxCell id="2dlY26bJGnjmjwcyT_eN-55" style="edgeStyle=orthogonalEdgeStyle;rounded=0;orthogonalLoop=1;jettySize=auto;html=1;entryX=0;entryY=0.5;entryDx=0;entryDy=0;" edge="1" parent="1" source="2dlY26bJGnjmjwcyT_eN-43" target="2dlY26bJGnjmjwcyT_eN-54">
          <mxGeometry relative="1" as="geometry" />
        </mxCell>
        <mxCell id="2dlY26bJGnjmjwcyT_eN-61" style="edgeStyle=orthogonalEdgeStyle;rounded=0;orthogonalLoop=1;jettySize=auto;html=1;entryX=0;entryY=0.5;entryDx=0;entryDy=0;" edge="1" parent="1" source="2dlY26bJGnjmjwcyT_eN-43" target="2dlY26bJGnjmjwcyT_eN-60">
          <mxGeometry relative="1" as="geometry" />
        </mxCell>
        <mxCell id="2dlY26bJGnjmjwcyT_eN-43" value="" style="rounded=0;whiteSpace=wrap;html=1;fillColor=none;" vertex="1" parent="1">
          <mxGeometry x="479.5" y="162" width="320.5" height="518" as="geometry" />
        </mxCell>
        <mxCell id="2dlY26bJGnjmjwcyT_eN-45" value="MySQL" style="shape=datastore;whiteSpace=wrap;html=1;fillColor=#ffcccc;strokeColor=#36393d;fontColor=#050505;fontSize=16;" vertex="1" parent="1">
          <mxGeometry x="1041.25" y="117.5" width="90" height="127" as="geometry" />
        </mxCell>
        <mxCell id="2dlY26bJGnjmjwcyT_eN-46" value="Users Products Tasks" style="text;html=1;align=center;verticalAlign=middle;resizable=0;points=[];autosize=1;strokeColor=none;fillColor=none;fontSize=14;" vertex="1" parent="1">
          <mxGeometry x="1006.25" y="247.5" width="160" height="30" as="geometry" />
        </mxCell>
        <mxCell id="2dlY26bJGnjmjwcyT_eN-47" value="Redis&lt;br&gt;(tokens)" style="shape=datastore;whiteSpace=wrap;html=1;fillColor=#ffcccc;strokeColor=#36393d;fontColor=#050505;fontSize=16;" vertex="1" parent="1">
          <mxGeometry x="1260" y="117.5" width="90" height="128" as="geometry" />
        </mxCell>
        <mxCell id="2dlY26bJGnjmjwcyT_eN-49" value="Sessions" style="text;html=1;align=center;verticalAlign=middle;resizable=0;points=[];autosize=1;strokeColor=none;fillColor=none;fontSize=14;" vertex="1" parent="1">
          <mxGeometry x="1265" y="247.5" width="80" height="30" as="geometry" />
        </mxCell>
        <mxCell id="2dlY26bJGnjmjwcyT_eN-50" value="Rabbit MQ" style="shape=loopLimit;whiteSpace=wrap;html=1;fontSize=14;fillColor=#ffcccc;strokeColor=#36393d;fontColor=#0D0D0D;" vertex="1" parent="1">
          <mxGeometry x="1002.5" y="317.5" width="167.5" height="80" as="geometry" />
        </mxCell>
        <mxCell id="2dlY26bJGnjmjwcyT_eN-51" value="&lt;span style=&quot;font-family: Helvetica; font-size: 14px; font-style: normal; font-variant-ligatures: normal; font-variant-caps: normal; font-weight: 400; letter-spacing: normal; orphans: 2; text-align: center; text-indent: 0px; text-transform: none; widows: 2; word-spacing: 0px; -webkit-text-stroke-width: 0px; background-color: rgb(27, 29, 30); text-decoration-thickness: initial; text-decoration-style: initial; text-decoration-color: initial; float: none; display: inline !important;&quot;&gt;&lt;font color=&quot;#f7f7f7&quot;&gt;Message broker&lt;/font&gt;&lt;/span&gt;" style="text;whiteSpace=wrap;html=1;" vertex="1" parent="1">
          <mxGeometry x="1030" y="397.5" width="110" height="30" as="geometry" />
        </mxCell>
        <mxCell id="2dlY26bJGnjmjwcyT_eN-52" value="Google Drive" style="shape=loopLimit;whiteSpace=wrap;html=1;fontSize=14;fillColor=#ffcccc;strokeColor=#36393d;fontColor=#0D0D0D;" vertex="1" parent="1">
          <mxGeometry x="1220" y="317.5" width="170" height="80" as="geometry" />
        </mxCell>
        <mxCell id="2dlY26bJGnjmjwcyT_eN-53" value="&lt;span style=&quot;font-family: Helvetica; font-size: 14px; font-style: normal; font-variant-ligatures: normal; font-variant-caps: normal; font-weight: 400; letter-spacing: normal; orphans: 2; text-indent: 0px; text-transform: none; widows: 2; word-spacing: 0px; -webkit-text-stroke-width: 0px; background-color: rgb(27, 29, 30); text-decoration-thickness: initial; text-decoration-style: initial; text-decoration-color: initial; float: none; display: inline !important;&quot;&gt;&lt;font color=&quot;#f7f7f7&quot;&gt;File storage&lt;/font&gt;&lt;/span&gt;" style="text;whiteSpace=wrap;html=1;align=center;" vertex="1" parent="1">
          <mxGeometry x="1250" y="397.5" width="110" height="30" as="geometry" />
        </mxCell>
        <mxCell id="2dlY26bJGnjmjwcyT_eN-54" value="" style="rounded=0;whiteSpace=wrap;html=1;fillColor=none;" vertex="1" parent="1">
          <mxGeometry x="960" y="80" width="480" height="397.5" as="geometry" />
        </mxCell>
        <mxCell id="2dlY26bJGnjmjwcyT_eN-56" value="Storages" style="text;html=1;align=center;verticalAlign=middle;resizable=0;points=[];autosize=1;strokeColor=none;fillColor=none;fontSize=26;" vertex="1" parent="1">
          <mxGeometry x="1001.25" y="20" width="130" height="40" as="geometry" />
        </mxCell>
        <mxCell id="2dlY26bJGnjmjwcyT_eN-57" value="External services" style="text;html=1;align=center;verticalAlign=middle;resizable=0;points=[];autosize=1;strokeColor=none;fillColor=none;fontSize=26;" vertex="1" parent="1">
          <mxGeometry x="970" y="560" width="220" height="40" as="geometry" />
        </mxCell>
        <mxCell id="2dlY26bJGnjmjwcyT_eN-58" value="Email notification service" style="rounded=1;whiteSpace=wrap;html=1;fillColor=#ffcc99;strokeColor=#36393d;fontColor=#050505;" vertex="1" parent="1">
          <mxGeometry x="1002.5" y="640" width="160" height="40" as="geometry" />
        </mxCell>
        <mxCell id="2dlY26bJGnjmjwcyT_eN-59" value="Payment service (ЮKassa)" style="rounded=1;whiteSpace=wrap;html=1;fillColor=#ffcc99;strokeColor=#36393d;fontColor=#050505;" vertex="1" parent="1">
          <mxGeometry x="1002.5" y="720" width="160" height="40" as="geometry" />
        </mxCell>
        <mxCell id="2dlY26bJGnjmjwcyT_eN-60" value="" style="rounded=0;whiteSpace=wrap;html=1;fillColor=none;" vertex="1" parent="1">
          <mxGeometry x="960" y="610" width="240" height="190" as="geometry" />
        </mxCell>
      </root>
    </mxGraphModel>
  </diagram>
</mxfile>
